<svg height="3806" width="720" xmlns="http://www.w3.org/2000/svg">
<rect height="3806" fill="#555" width="720"></rect>
<text fill="#7f7" font-family="Courier New" font-size="12" xml:space="preserve">
<tspan x="10" y="26">35 megabytes installed</tspan>
<tspan x="10" y="42"></tspan>
<tspan x="10" y="58">node_modules</tspan>
<tspan x="10" y="74">└─┬ semantic-release@6.3.2 </tspan>
<tspan x="10" y="90">  ├── @bahmutov/parse-github-repo-url@0.1.2 </tspan>
<tspan x="10" y="106">  ├─┬ @semantic-release/commit-analyzer@2.0.0 </tspan>
<tspan x="10" y="122">  │ └─┬ conventional-changelog@0.0.17 </tspan>
<tspan x="10" y="138">  │   ├─┬ dateformat@1.0.12 </tspan>
<tspan x="10" y="154">  │   │ ├── get-stdin@4.0.1 </tspan>
<tspan x="10" y="170">  │   │ └─┬ meow@3.7.0 </tspan>
<tspan x="10" y="186">  │   │   ├─┬ camelcase-keys@2.1.0 </tspan>
<tspan x="10" y="202">  │   │   │ └── camelcase@2.1.1 </tspan>
<tspan x="10" y="218">  │   │   ├── decamelize@1.2.0 </tspan>
<tspan x="10" y="234">  │   │   ├─┬ loud-rejection@1.6.0 </tspan>
<tspan x="10" y="250">  │   │   │ └─┬ currently-unhandled@0.4.1 </tspan>
<tspan x="10" y="266">  │   │   │   └── array-find-index@1.0.2 </tspan>
<tspan x="10" y="282">  │   │   ├── map-obj@1.0.1 </tspan>
<tspan x="10" y="298">  │   │   ├── minimist@1.2.0 </tspan>
<tspan x="10" y="314">  │   │   ├─┬ read-pkg-up@1.0.1 </tspan>
<tspan x="10" y="330">  │   │   │ ├─┬ find-up@1.1.2 </tspan>
<tspan x="10" y="346">  │   │   │ │ └── path-exists@2.1.0 </tspan>
<tspan x="10" y="362">  │   │   │ └─┬ read-pkg@1.1.0 </tspan>
<tspan x="10" y="378">  │   │   │   ├─┬ load-json-file@1.1.0 </tspan>
<tspan x="10" y="394">  │   │   │   │ ├─┬ parse-json@2.2.0 </tspan>
<tspan x="10" y="410">  │   │   │   │ │ └─┬ error-ex@1.3.1 </tspan>
<tspan x="10" y="426">  │   │   │   │ │   └── is-arrayish@0.2.1 </tspan>
<tspan x="10" y="442">  │   │   │   │ ├── pify@2.3.0 </tspan>
<tspan x="10" y="458">  │   │   │   │ └─┬ strip-bom@2.0.0 </tspan>
<tspan x="10" y="474">  │   │   │   │   └── is-utf8@0.2.1 </tspan>
<tspan x="10" y="490">  │   │   │   └── path-type@1.1.0 </tspan>
<tspan x="10" y="506">  │   │   ├─┬ redent@1.0.0 </tspan>
<tspan x="10" y="522">  │   │   │ ├─┬ indent-string@2.1.0 </tspan>
<tspan x="10" y="538">  │   │   │ │ └─┬ repeating@2.0.1 </tspan>
<tspan x="10" y="554">  │   │   │ │   └── is-finite@1.0.2 </tspan>
<tspan x="10" y="570">  │   │   │ └── strip-indent@1.0.1 </tspan>
<tspan x="10" y="586">  │   │   └── trim-newlines@1.0.0 </tspan>
<tspan x="10" y="602">  │   ├─┬ event-stream@3.3.4 </tspan>
<tspan x="10" y="618">  │   │ ├── duplexer@0.1.1 </tspan>
<tspan x="10" y="634">  │   │ ├── from@0.1.7 </tspan>
<tspan x="10" y="650">  │   │ ├── map-stream@0.1.0 </tspan>
<tspan x="10" y="666">  │   │ ├── pause-stream@0.0.11 </tspan>
<tspan x="10" y="682">  │   │ ├── split@0.3.3 </tspan>
<tspan x="10" y="698">  │   │ ├── stream-combiner@0.0.4 </tspan>
<tspan x="10" y="714">  │   │ └── through@2.3.8 </tspan>
<tspan x="10" y="730">  │   ├── lodash@3.10.1 </tspan>
<tspan x="10" y="746">  │   └─┬ normalize-package-data@1.0.3 </tspan>
<tspan x="10" y="762">  │     ├── github-url-from-username-repo@1.0.2 </tspan>
<tspan x="10" y="778">  │     └── semver@4.3.6 </tspan>
<tspan x="10" y="794">  ├─┬ @semantic-release/condition-travis@5.0.2 </tspan>
<tspan x="10" y="810">  │ └─┬ travis-deploy-once@1.0.0-node-0.10-support </tspan>
<tspan x="10" y="826">  │   ├─┬ babel-polyfill@6.23.0 </tspan>
<tspan x="10" y="842">  │   │ ├── babel-runtime@6.23.0 </tspan>
<tspan x="10" y="858">  │   │ ├── core-js@2.4.1 </tspan>
<tspan x="10" y="874">  │   │ └── regenerator-runtime@0.10.3 </tspan>
<tspan x="10" y="890">  │   ├── bluebird@3.5.0 </tspan>
<tspan x="10" y="906">  │   ├─┬ request@2.81.0 </tspan>
<tspan x="10" y="922">  │   │ ├── aws-sign2@0.6.0 </tspan>
<tspan x="10" y="938">  │   │ ├── aws4@1.6.0 </tspan>
<tspan x="10" y="954">  │   │ ├── caseless@0.12.0 </tspan>
<tspan x="10" y="970">  │   │ ├─┬ combined-stream@1.0.5 </tspan>
<tspan x="10" y="986">  │   │ │ └── delayed-stream@1.0.0 </tspan>
<tspan x="10" y="1002">  │   │ ├── extend@3.0.0 </tspan>
<tspan x="10" y="1018">  │   │ ├── forever-agent@0.6.1 </tspan>
<tspan x="10" y="1034">  │   │ ├─┬ form-data@2.1.4 </tspan>
<tspan x="10" y="1050">  │   │ │ └── asynckit@0.4.0 </tspan>
<tspan x="10" y="1066">  │   │ ├─┬ har-validator@4.2.1 </tspan>
<tspan x="10" y="1082">  │   │ │ ├─┬ ajv@4.11.7 </tspan>
<tspan x="10" y="1098">  │   │ │ │ ├── co@4.6.0 </tspan>
<tspan x="10" y="1114">  │   │ │ │ └─┬ json-stable-stringify@1.0.1 </tspan>
<tspan x="10" y="1130">  │   │ │ │   └── jsonify@0.0.0 </tspan>
<tspan x="10" y="1146">  │   │ │ └── har-schema@1.0.5 </tspan>
<tspan x="10" y="1162">  │   │ ├─┬ hawk@3.1.3 </tspan>
<tspan x="10" y="1178">  │   │ │ ├── boom@2.10.1 </tspan>
<tspan x="10" y="1194">  │   │ │ ├── cryptiles@2.0.5 </tspan>
<tspan x="10" y="1210">  │   │ │ ├── hoek@2.16.3 </tspan>
<tspan x="10" y="1226">  │   │ │ └── sntp@1.0.9 </tspan>
<tspan x="10" y="1242">  │   │ ├─┬ http-signature@1.1.1 </tspan>
<tspan x="10" y="1258">  │   │ │ ├── assert-plus@0.2.0 </tspan>
<tspan x="10" y="1274">  │   │ │ ├─┬ jsprim@1.4.0 </tspan>
<tspan x="10" y="1290">  │   │ │ │ ├── assert-plus@1.0.0 </tspan>
<tspan x="10" y="1306">  │   │ │ │ ├── extsprintf@1.0.2 </tspan>
<tspan x="10" y="1322">  │   │ │ │ ├── json-schema@0.2.3 </tspan>
<tspan x="10" y="1338">  │   │ │ │ └── verror@1.3.6 </tspan>
<tspan x="10" y="1354">  │   │ │ └─┬ sshpk@1.13.0 </tspan>
<tspan x="10" y="1370">  │   │ │   ├── asn1@0.2.3 </tspan>
<tspan x="10" y="1386">  │   │ │   ├── assert-plus@1.0.0 </tspan>
<tspan x="10" y="1402">  │   │ │   ├── bcrypt-pbkdf@1.0.1 </tspan>
<tspan x="10" y="1418">  │   │ │   ├─┬ dashdash@1.14.1 </tspan>
<tspan x="10" y="1434">  │   │ │   │ └── assert-plus@1.0.0 </tspan>
<tspan x="10" y="1450">  │   │ │   ├── ecc-jsbn@0.1.1 </tspan>
<tspan x="10" y="1466">  │   │ │   ├─┬ getpass@0.1.6 </tspan>
<tspan x="10" y="1482">  │   │ │   │ └── assert-plus@1.0.0 </tspan>
<tspan x="10" y="1498">  │   │ │   ├── jodid25519@1.0.2 </tspan>
<tspan x="10" y="1514">  │   │ │   ├── jsbn@0.1.1 </tspan>
<tspan x="10" y="1530">  │   │ │   └── tweetnacl@0.14.5 </tspan>
<tspan x="10" y="1546">  │   │ ├── is-typedarray@1.0.0 </tspan>
<tspan x="10" y="1562">  │   │ ├── isstream@0.1.2 </tspan>
<tspan x="10" y="1578">  │   │ ├── json-stringify-safe@5.0.1 </tspan>
<tspan x="10" y="1594">  │   │ ├─┬ mime-types@2.1.15 </tspan>
<tspan x="10" y="1610">  │   │ │ └── mime-db@1.27.0 </tspan>
<tspan x="10" y="1626">  │   │ ├── oauth-sign@0.8.2 </tspan>
<tspan x="10" y="1642">  │   │ ├── performance-now@0.2.0 </tspan>
<tspan x="10" y="1658">  │   │ ├── qs@6.4.0 </tspan>
<tspan x="10" y="1674">  │   │ ├── safe-buffer@5.0.1 </tspan>
<tspan x="10" y="1690">  │   │ ├── stringstream@0.0.5 </tspan>
<tspan x="10" y="1706">  │   │ ├─┬ tough-cookie@2.3.2 </tspan>
<tspan x="10" y="1722">  │   │ │ └── punycode@1.4.1 </tspan>
<tspan x="10" y="1738">  │   │ ├── tunnel-agent@0.6.0 </tspan>
<tspan x="10" y="1754">  │   │ └── uuid@3.0.1 </tspan>
<tspan x="10" y="1770">  │   ├─┬ request-promise@4.2.0 </tspan>
<tspan x="10" y="1786">  │   │ ├── request-promise-core@1.1.1 </tspan>
<tspan x="10" y="1802">  │   │ └── stealthy-require@1.0.0 </tspan>
<tspan x="10" y="1818">  │   └─┬ travis-ci@2.1.1 </tspan>
<tspan x="10" y="1834">  │     ├── github@0.1.16 </tspan>
<tspan x="10" y="1850">  │     ├── lodash@1.3.1 </tspan>
<tspan x="10" y="1866">  │     ├─┬ request@2.74.0 </tspan>
<tspan x="10" y="1882">  │     │ ├── bl@1.1.2 </tspan>
<tspan x="10" y="1898">  │     │ ├── caseless@0.11.0 </tspan>
<tspan x="10" y="1914">  │     │ ├─┬ form-data@1.0.1 </tspan>
<tspan x="10" y="1930">  │     │ │ └── async@2.3.0 </tspan>
<tspan x="10" y="1946">  │     │ ├─┬ har-validator@2.0.6 </tspan>
<tspan x="10" y="1962">  │     │ │ ├─┬ chalk@1.1.3 </tspan>
<tspan x="10" y="1978">  │     │ │ │ ├── ansi-styles@2.2.1 </tspan>
<tspan x="10" y="1994">  │     │ │ │ ├── escape-string-regexp@1.0.5 </tspan>
<tspan x="10" y="2010">  │     │ │ │ ├── has-ansi@2.0.0 </tspan>
<tspan x="10" y="2026">  │     │ │ │ └── supports-color@2.0.0 </tspan>
<tspan x="10" y="2042">  │     │ │ ├─┬ commander@2.9.0 </tspan>
<tspan x="10" y="2058">  │     │ │ │ └── graceful-readlink@1.0.1 </tspan>
<tspan x="10" y="2074">  │     │ │ ├─┬ is-my-json-valid@2.16.0 </tspan>
<tspan x="10" y="2090">  │     │ │ │ ├── generate-function@2.0.0 </tspan>
<tspan x="10" y="2106">  │     │ │ │ ├─┬ generate-object-property@1.2.0 </tspan>
<tspan x="10" y="2122">  │     │ │ │ │ └── is-property@1.0.2 </tspan>
<tspan x="10" y="2138">  │     │ │ │ ├── jsonpointer@4.0.1 </tspan>
<tspan x="10" y="2154">  │     │ │ │ └── xtend@4.0.1 </tspan>
<tspan x="10" y="2170">  │     │ │ └─┬ pinkie-promise@2.0.1 </tspan>
<tspan x="10" y="2186">  │     │ │   └── pinkie@2.0.4 </tspan>
<tspan x="10" y="2202">  │     │ ├── node-uuid@1.4.8 </tspan>
<tspan x="10" y="2218">  │     │ ├── qs@6.2.3 </tspan>
<tspan x="10" y="2234">  │     │ └── tunnel-agent@0.4.3 </tspan>
<tspan x="10" y="2250">  │     └── underscore.string@2.2.1 </tspan>
<tspan x="10" y="2266">  ├── @semantic-release/error@1.0.0 </tspan>
<tspan x="10" y="2282">  ├─┬ @semantic-release/last-release-npm@1.2.1 </tspan>
<tspan x="10" y="2298">  │ ├─┬ npm-registry-client@7.5.0 </tspan>
<tspan x="10" y="2314">  │ │ ├─┬ concat-stream@1.6.0 </tspan>
<tspan x="10" y="2330">  │ │ │ ├─┬ readable-stream@2.2.9 </tspan>
<tspan x="10" y="2346">  │ │ │ │ ├── buffer-shims@1.0.0 </tspan>
<tspan x="10" y="2362">  │ │ │ │ └── string_decoder@1.0.0 </tspan>
<tspan x="10" y="2378">  │ │ │ └── typedarray@0.0.6 </tspan>
<tspan x="10" y="2394">  │ │ ├── graceful-fs@4.1.11 </tspan>
<tspan x="10" y="2410">  │ │ ├── npm-package-arg@4.2.1 </tspan>
<tspan x="10" y="2426">  │ │ ├── once@1.4.0 </tspan>
<tspan x="10" y="2442">  │ │ ├── retry@0.10.1 </tspan>
<tspan x="10" y="2458">  │ │ └── slide@1.1.6 </tspan>
<tspan x="10" y="2474">  │ └─┬ npmlog@1.2.1 </tspan>
<tspan x="10" y="2490">  │   ├── ansi@0.3.1 </tspan>
<tspan x="10" y="2506">  │   ├── are-we-there-yet@1.0.6 </tspan>
<tspan x="10" y="2522">  │   └─┬ gauge@1.2.7 </tspan>
<tspan x="10" y="2538">  │     ├── lodash.pad@4.5.1 </tspan>
<tspan x="10" y="2554">  │     ├── lodash.padend@4.6.1 </tspan>
<tspan x="10" y="2570">  │     └── lodash.padstart@4.6.1 </tspan>
<tspan x="10" y="2586">  ├─┬ @semantic-release/release-notes-generator@2.0.0 </tspan>
<tspan x="10" y="2602">  │ └── github-url-from-git@1.5.0 </tspan>
<tspan x="10" y="2618">  ├─┬ git-head@1.20.1 </tspan>
<tspan x="10" y="2634">  │ └─┬ git-refs@1.1.3 </tspan>
<tspan x="10" y="2650">  │   ├─┬ path-object@2.3.0 </tspan>
<tspan x="10" y="2666">  │   │ ├── core-util-is@1.0.2 </tspan>
<tspan x="10" y="2682">  │   │ └─┬ lodash.assign@3.2.0 </tspan>
<tspan x="10" y="2698">  │   │   ├─┬ lodash._baseassign@3.2.0 </tspan>
<tspan x="10" y="2714">  │   │   │ └── lodash._basecopy@3.0.1 </tspan>
<tspan x="10" y="2730">  │   │   ├─┬ lodash._createassigner@3.1.1 </tspan>
<tspan x="10" y="2746">  │   │   │ ├── lodash._bindcallback@3.0.1 </tspan>
<tspan x="10" y="2762">  │   │   │ ├── lodash._isiterateecall@3.0.9 </tspan>
<tspan x="10" y="2778">  │   │   │ └── lodash.restparam@3.6.1 </tspan>
<tspan x="10" y="2794">  │   │   └─┬ lodash.keys@3.1.2 </tspan>
<tspan x="10" y="2810">  │   │     ├── lodash._getnative@3.9.1 </tspan>
<tspan x="10" y="2826">  │   │     ├── lodash.isarguments@3.1.0 </tspan>
<tspan x="10" y="2842">  │   │     └── lodash.isarray@3.0.4 </tspan>
<tspan x="10" y="2858">  │   ├── slash@1.0.0 </tspan>
<tspan x="10" y="2874">  │   └─┬ walk@2.3.9 </tspan>
<tspan x="10" y="2890">  │     └── foreachasync@3.0.0 </tspan>
<tspan x="10" y="2906">  ├─┬ github@0.2.4 </tspan>
<tspan x="10" y="2922">  │ └── mime@1.3.4 </tspan>
<tspan x="10" y="2938">  ├── lodash@4.17.4 </tspan>
<tspan x="10" y="2954">  ├── nerf-dart@1.0.0 </tspan>
<tspan x="10" y="2970">  ├─┬ nopt@3.0.6 </tspan>
<tspan x="10" y="2986">  │ └── abbrev@1.1.0 </tspan>
<tspan x="10" y="3002">  ├─┬ normalize-package-data@2.3.6 </tspan>
<tspan x="10" y="3018">  │ ├── hosted-git-info@2.4.2 </tspan>
<tspan x="10" y="3034">  │ ├─┬ is-builtin-module@1.0.0 </tspan>
<tspan x="10" y="3050">  │ │ └── builtin-modules@1.1.1 </tspan>
<tspan x="10" y="3066">  │ └─┬ validate-npm-package-license@3.0.1 </tspan>
<tspan x="10" y="3082">  │   ├─┬ spdx-correct@1.0.2 </tspan>
<tspan x="10" y="3098">  │   │ └── spdx-license-ids@1.2.2 </tspan>
<tspan x="10" y="3114">  │   └── spdx-expression-parse@1.0.4 </tspan>
<tspan x="10" y="3130">  ├─┬ npmconf@2.1.2 </tspan>
<tspan x="10" y="3146">  │ ├─┬ config-chain@1.1.11 </tspan>
<tspan x="10" y="3162">  │ │ └── proto-list@1.2.4 </tspan>
<tspan x="10" y="3178">  │ ├── inherits@2.0.3 </tspan>
<tspan x="10" y="3194">  │ ├── ini@1.3.4 </tspan>
<tspan x="10" y="3210">  │ ├─┬ mkdirp@0.5.1 </tspan>
<tspan x="10" y="3226">  │ │ └── minimist@0.0.8 </tspan>
<tspan x="10" y="3242">  │ ├─┬ once@1.3.3 </tspan>
<tspan x="10" y="3258">  │ │ └── wrappy@1.0.2 </tspan>
<tspan x="10" y="3274">  │ ├─┬ osenv@0.1.4 </tspan>
<tspan x="10" y="3290">  │ │ ├── os-homedir@1.0.2 </tspan>
<tspan x="10" y="3306">  │ │ └── os-tmpdir@1.0.2 </tspan>
<tspan x="10" y="3322">  │ ├── semver@4.3.6 </tspan>
<tspan x="10" y="3338">  │ └── uid-number@0.0.5 </tspan>
<tspan x="10" y="3354">  ├─┬ npmlog@4.0.2 </tspan>
<tspan x="10" y="3370">  │ ├─┬ are-we-there-yet@1.1.2 </tspan>
<tspan x="10" y="3386">  │ │ ├── delegates@1.0.0 </tspan>
<tspan x="10" y="3402">  │ │ └─┬ readable-stream@2.0.6 </tspan>
<tspan x="10" y="3418">  │ │   ├── isarray@1.0.0 </tspan>
<tspan x="10" y="3434">  │ │   ├── process-nextick-args@1.0.7 </tspan>
<tspan x="10" y="3450">  │ │   ├── string_decoder@0.10.31 </tspan>
<tspan x="10" y="3466">  │ │   └── util-deprecate@1.0.2 </tspan>
<tspan x="10" y="3482">  │ ├── console-control-strings@1.1.0 </tspan>
<tspan x="10" y="3498">  │ ├─┬ gauge@2.7.3 </tspan>
<tspan x="10" y="3514">  │ │ ├── aproba@1.1.1 </tspan>
<tspan x="10" y="3530">  │ │ ├── has-unicode@2.0.1 </tspan>
<tspan x="10" y="3546">  │ │ ├── object-assign@4.1.1 </tspan>
<tspan x="10" y="3562">  │ │ ├── signal-exit@3.0.2 </tspan>
<tspan x="10" y="3578">  │ │ ├─┬ string-width@1.0.2 </tspan>
<tspan x="10" y="3594">  │ │ │ ├── code-point-at@1.1.0 </tspan>
<tspan x="10" y="3610">  │ │ │ └─┬ is-fullwidth-code-point@1.0.0 </tspan>
<tspan x="10" y="3626">  │ │ │   └── number-is-nan@1.0.1 </tspan>
<tspan x="10" y="3642">  │ │ ├─┬ strip-ansi@3.0.1 </tspan>
<tspan x="10" y="3658">  │ │ │ └── ansi-regex@2.1.1 </tspan>
<tspan x="10" y="3674">  │ │ └── wide-align@1.1.0 </tspan>
<tspan x="10" y="3690">  │ └── set-blocking@2.0.0 </tspan>
<tspan x="10" y="3706">  ├── require-relative@0.8.7 </tspan>
<tspan x="10" y="3722">  ├─┬ run-auto@2.0.0 </tspan>
<tspan x="10" y="3738">  │ └─┬ dezalgo@1.0.3 </tspan>
<tspan x="10" y="3754">  │   └── asap@2.0.5 </tspan>
<tspan x="10" y="3770">  ├── run-series@1.1.4 </tspan>
<tspan x="10" y="3786">  └── semver@5.3.0</tspan>
</text>
</svg>
